#!OML:ASF F:\VICON\USERDATA\INSTALL\rory3\rory3.ASF
:FULLY-SPECIFIED
:DEGREES
1376
root 4.53434 17.3224 -2.32776 -1.50387 20.7132 -7.28182
lowerback 24.8475 -0.71141 -3.39469
upperback 6.33001 -1.72267 -0.794507
thorax -6.72796 -0.755752 1.58435
lowerneck -9.0979 -7.99873 -12.851
upperneck -6.6999 -9.28073 18.8179
head 1.14947 -4.33343 7.44292
rclavicle 2.14687e-014 1.27222e-014
rhumerus -20.8641 13.7686 -75.5858
rradius 49.5027
rwrist 5.90562
rhand -34.3719 8.33735
rfingers 7.12502
rthumb -7.53858 -21.5083
lclavicle 2.14687e-014 1.27222e-014
lhumerus -18.1675 -12.1347 81.0975
lradius 52.7776
lwrist -24.6606
lhand -21.3642 17.3395
lfingers 7.12502
lthumb 5.02274 47.26
rfemur -24.7118 4.52586 2.71544
rtibia 45.5791
rfoot 2.74167 -23.1195
rtoes -12.9624
lfemur -31.0457 6.45928 -7.59171
ltibia 57.2265
lfoot -21.2128 -4.01312
ltoes 0.445262
1377
root 4.60677 17.3947 -2.31926 -1.71636 20.6023 -7.43079
lowerback 24.6569 -0.789605 -3.41737
upperback 6.25044 -1.82081 -0.723572
thorax -6.7115 -0.803642 1.70066
lowerneck -8.77617 -8.01077 -12.9733
upperneck -6.46998 -9.35124 19.1213
head 1.20249 -4.37693 7.55948
rclavicle 1.66979e-014 -1.11319e-014
rhumerus -21.4018 13.5052 -75.5069
rradius 49.4101
rwrist 6.39522
rhand -34.2224 7.68456
rfingers 7.12502
rthumb -7.39419 -22.1662
lclavicle 1.66979e-014 -1.11319e-014
lhumerus -18.8134 -11.3662 81.3126
lradius 52.8809
lwrist -24.4369
lhand -21.397 17.3351
lfingers 7.12502
lthumb 4.991 47.2563
rfemur -24.4291 5.45378 2.79184
rtibia 45.0436
rfoot 4.27327 -24.1194
rtoes -10.9985
lfemur -30.1499 6.30201 -7.6532
ltibia 56.2505
lfoot -21.0359 -3.7791
ltoes 0.797387
1378
root 4.6764 17.4656 -2.30959 -1.91387 20.3942 -7.66243
lowerback 24.3773 -0.851332 -3.47673
upperback 6.23083 -1.89554 -0.583683
thorax -6.58036 -0.843238 1.90261
lowerneck -8.68867 -8.02114 -13.182
upperneck -6.16731 -9.39834 19.4587
head 1.31743 -4.39365 7.69506
rclavicle -2.62396e-014 0
rhumerus -21.7981 13.1972 -75.3563
rradius 49.4217
rwrist 7.20595
rhand -34.0229 6.93918
rfingers 7.12502
rthumb -7.20166 -22.9183
lclavicle -2.62396e-014 0
lhumerus -19.3114 -10.5179 81.4865
lradius 52.9704
lwrist -24.3739
lhand -21.3648 17.3277
lfingers 7.12502
lthumb 5.02208 47.2482
rfemur -24.2494 6.4717 2.9712
rtibia 44.5366
rfoot 5.52075 -25.2586
rtoes -8.80201
lfemur -29.2991 6.2378 -7.61904
ltibia 55.2827
lfoot -20.9154 -3.49151
ltoes 0.818574
1379
root 4.75029 17.5366 -2.29509 -2.07292 20.2222 -7.76494
lowerback 24.0822 -0.959916 -3.556
upperback 6.1703 -2.04466 -0.544146
thorax -6.48454 -0.917451 2.027
lowerneck -8.43205 -7.96051 -13.3223
upperneck -5.89659 -9.36971 19.8212
head 1.38175 -4.38305 7.84094
rclavicle 2.54444e-014 3.33958e-014
rhumerus -22.2309 13.139 -75.3592
rradius 49.1973
rwrist 7.5322
rhand -33.9383 6.80055
rfingers 7.12502
rthumb -7.11996 -23.0597
lclavicle 2.54444e-014 3.33958e-014
lhumerus -19.9687 -9.80398 81.5285
lradius 53.0791
lwrist -24.3508
lhand -21.2137 17.1718
lfingers 7.12502
lthumb 5.16803 47.0888
rfemur -24.0484 7.39147 3.0329
rtibia 44.0669
rfoot 6.78131 -26.3758
rtoes -6.78293
lfemur -28.412 6.14881 -7.74562
ltibia 54.3046
lfoot -20.8589 -3.11083
ltoes 0.615744
1380
root 4.82344 17.6036 -2.28182 -2.13466 20.1022 -7.71316
lowerback 23.7825 -1.07332 -3.68281
upperback 6.07452 -2.21728 -0.570904
thorax -6.4234 -1.00139 2.11218
lowerneck -8.06413 -7.91096 -13.391
upperneck -5.6704 -9.36931 20.1293
head 1.41167 -4.3949 7.95985
rclavicle 8.98507e-014 -3.18055e-015
rhumerus -22.7218 13.1989 -75.4365
rradius 48.8709
rwrist 7.42445
rhand -34.0846 7.01264
rfingers 7.12502
rthumb -7.26126 -22.8428
lclavicle 8.98507e-014 -3.18055e-015
lhumerus -20.6561 -9.19214 81.5438
lradius 53.1725
lwrist -24.3748
lhand -21.0894 16.6638
lfingers 7.12502
lthumb 5.28807 46.5778
rfemur -23.9417 8.24191 2.92941
rtibia 43.64
rfoot 7.95228 -27.6419
rtoes -4.28307
lfemur -27.5859 6.00231 -8.05289
ltibia 53.3014
lfoot -20.7496 -2.6242
ltoes 0.182491
1381
root 4.8898 17.6685 -2.27096 -2.23739 19.8574 -7.75181
lowerback 23.5347 -1.12449 -3.77427
upperback 5.9953 -2.29752 -0.534735
thorax -6.37372 -1.0412 2.22007
lowerneck -8.18547 -8.17348 -13.2095
upperneck -4.98892 -9.82289 19.8939
head 1.67499 -4.60274 7.79445
rclavicle -4.29375e-014 9.54166e-015
rhumerus -23.1834 13.2288 -75.4309
rradius 48.6071
rwrist 7.47541
rhand -34.0337 6.96166
rfingers 7.12502
rthumb -7.21209 -22.8954
lclavicle -4.29375e-014 9.54166e-015
lhumerus -21.2254 -8.64628 81.6108
lradius 53.2302
lwrist -24.4977
lhand -20.986 16.2837
lfingers 7.12502
lthumb 5.38782 46.1952
rfemur -23.9532 9.22064 2.9613
rtibia 43.2574
rfoot 9.00315 -29.0595
rtoes -1.09682
lfemur -26.7477 5.95913 -8.22325
ltibia 52.2811
lfoot -20.6073 -2.16953
ltoes -0.189266
1382
root 4.96135 17.7343 -2.26475 -2.2362 19.748 -7.50004
lowerback 23.293 -1.2091 -3.98916
upperback 5.91078 -2.45568 -0.585562
thorax -6.32555 -1.11687 2.32481
lowerneck -9.40085 -8.87888 -12.5503
upperneck -3.15376 -10.9414 18.7838
head 2.46095 -5.07141 7.14539
rclavicle -4.77083e-015 1.27222e-014
rhumerus -23.6588 13.2092 -75.4077
rradius 48.3682
rwrist 7.67682
rhand -33.8763 6.54053
rfingers 7.12502
rthumb -7.06018 -23.3217
lclavicle -4.77083e-015 1.27222e-014
lhumerus -21.7921 -8.26882 81.6774
lradius 53.3704
lwrist -24.4869
lhand -20.9094 16.588
lfingers 7.12502
lthumb 5.4618 46.4976
rfemur -23.9069 9.84208 2.70411
rtibia 42.92
rfoot 9.67099 -30.204
rtoes 2.0023
lfemur -25.9198 5.71821 -8.73645
ltibia 51.2432
lfoot -20.4881 -1.75731
ltoes -0.19246
1383
root 5.03147 17.7981 -2.25302 -2.24241 19.6311 -7.2305
lowerback 22.9389 -1.28642 -4.24385
upperback 5.8806 -2.60736 -0.669348
thorax -6.15896 -1.19306 2.40828
lowerneck -9.22361 -9.04646 -12.3775
upperneck -2.8718 -11.2413 18.7038
head 2.54386 -5.2251 7.0623
rclavicle 7.4743e-014 4.92986e-014
rhumerus -24.0824 13.0987 -75.457
rradius 48.0737
rwrist 7.77572
rhand -33.9774 6.56171
rfingers 7.12502
rthumb -7.15776 -23.2972
lclavicle 7.4743e-014 4.92986e-014
lhumerus -22.3018 -7.98369 81.6347
lradius 53.4957
lwrist -24.3961
lhand -20.8856 16.6944
lfingers 7.12502
lthumb 5.48478 46.6034
rfemur -23.8281 10.3361 2.49432
rtibia 42.6395
rfoot 9.98463 -30.9208
rtoes 4.24511
lfemur -25.0647 5.47417 -9.24564
ltibia 50.2124
lfoot -20.3347 -1.36075
ltoes -0.131975
1384
root 5.09626 17.8589 -2.23709 -2.30982 19.4084 -7.23321
lowerback 22.5615 -1.35718 -4.29816
upperback 5.83423 -2.69987 -0.698655
thorax -6.00854 -1.24257 2.41938
lowerneck -8.98327 -9.20559 -12.026
upperneck -2.54475 -11.5523 18.4817
head 2.60865 -5.38949 6.90607
rclavicle 7.95139e-015 4.77083e-015
rhumerus -24.5072 13.0928 -75.5952
rradius 47.6784
rwrist 7.61864
rhand -34.1017 6.93791
rfingers 7.12502
rthumb -7.2777 -22.9169
lclavicle 7.95139e-015 4.77083e-015
lhumerus -22.7687 -7.80199 81.5194
lradius 53.5164
lwrist -24.2641
lhand -20.6603 16.3938
lfingers 7.12502
lthumb 5.70235 46.297
rfemur -23.864 10.8754 2.6149
rtibia 42.4141
rfoot 10.5201 -30.9251
rtoes 5.14281
lfemur -24.2205 5.38562 -9.42417
ltibia 49.1861
lfoot -20.1912 -1.05112
ltoes 0.11495
1385
root 5.15609 17.9168 -2.22234 -2.38579 19.1185 -7.29116
lowerback 22.2562 -1.40104 -4.32566
upperback 5.75645 -2.75271 -0.678318
thorax -5.93037 -1.2709 2.46132
lowerneck -8.49966 -9.36111 -11.8411
upperneck -2.3647 -11.8472 18.3555
head 2.60459 -5.55877 6.82183
rclavicle 7.95139e-016 -1.27222e-014
rhumerus -24.9742 13.1436 -75.7065
rradius 47.2958
rwrist 7.51754
rhand -34.2185 7.05059
rfingers 7.12502
rthumb -7.39052 -22.8003
lclavicle 7.95139e-016 -1.27222e-014
lhumerus -23.3121 -7.71827 81.4529
lradius 53.6332
lwrist -24.0335
lhand -20.3288 16.4231
lfingers 7.12502
lthumb 6.02239 46.3175
rfemur -23.9953 11.4689 2.8016
rtibia 42.2413
rfoot 10.9675 -30.2324
rtoes 6.06141
lfemur -23.4031 5.36481 -9.5258
ltibia 48.161
lfoot -20.0478 -0.742996
ltoes 0.30372
1386
root 5.21514 17.9738 -2.21074 -2.42576 18.8175 -7.17207
lowerback 22.058 -1.43875 -4.4702
upperback 5.65755 -2.83282 -0.71035
thorax -5.92451 -1.30876 2.52436
lowerneck -8.20048 -9.44856 -11.919
upperneck -1.99634 -12.042 18.4935
head 2.70759 -5.6577 6.86317
rclavicle 3.97569e-015 -3.33958e-014
rhumerus -25.453 13.1546 -75.821
rradius 47.0132
rwrist 7.60026
rhand -34.3374 6.88143
rfingers 7.12502
rthumb -7.5052 -22.9654
lclavicle 3.97569e-015 -3.33958e-014
lhumerus -23.8581 -7.62016 81.3794
lradius 53.758
lwrist -23.8556
lhand -20.324 16.654
lfingers 7.12502
lthumb 6.02703 46.5483
rfemur -24.1388 12.0622 2.78965
rtibia 42.091
rfoot 11.0233 -29.0402
rtoes 7.69615
lfemur -22.5649 5.30856 -9.81979
ltibia 47.1224
lfoot -19.8779 -0.360566
ltoes 0.418064
1387
root 5.27592 18.0291 -2.2 -2.41415 18.597 -6.95627
lowerback 21.8657 -1.50572 -4.63677
upperback 5.54942 -2.95797 -0.775782
thorax -5.92851 -1.36753 2.57542
lowerneck -7.99092 -9.47633 -12.0157
upperneck -1.61705 -12.1478 18.6389
head 2.8171 -5.7072 6.91563
rclavicle -4.77083e-014 1.11319e-014
rhumerus -25.9913 13.2626 -76.0064
rradius 46.7626
rwrist 7.44798
rhand -34.573 6.87221
rfingers 7.12502
rthumb -7.73263 -22.9664
lclavicle -4.77083e-014 1.11319e-014
lhumerus -24.2911 -7.50088 81.3049
lradius 53.7438
lwrist -23.7399
lhand -20.4894 16.7512
lfingers 7.12502
lthumb 5.86731 46.6499
rfemur -24.2869 12.5398 2.66005
rtibia 41.9515
rfoot 11.2445 -27.2061
rtoes 9.55917
lfemur -21.7262 5.12971 -10.2175
ltibia 46.0767
lfoot -19.7403 -0.11501
ltoes 0.912972
1388
root 5.33695 18.0832 -2.18689 -2.36117 18.4238 -6.67833
lowerback 21.5442 -1.56622 -4.85516
upperback 5.50494 -3.07457 -0.837222
thorax -5.79284 -1.42681 2.65011
lowerneck -7.90123 -9.5275 -12.0594
upperneck -1.27786 -12.2697 18.6834
head 2.92585 -5.76171 6.92201
rclavicle -2.14687e-014 -2.22639e-014
rhumerus -26.5033 13.2681 -76.1174
rradius 46.566
rwrist 7.60366
rhand -34.6093 6.81907
rfingers 7.12502
rthumb -7.76765 -23.0183
lclavicle -2.14687e-014 -2.22639e-014
lhumerus -24.665 -7.41052 81.2541
lradius 53.7357
lwrist -23.5666
lhand -20.4748 16.672
lfingers 7.12502
lthumb 5.88141 46.5703
rfemur -24.4251 12.9045 2.50529
rtibia 41.8263
rfoot 11.8092 -24.7696
rtoes 10.6679
lfemur -20.9083 4.90346 -10.6848
ltibia 45.0264
lfoot -19.6007 0.119675
ltoes 1.34729
1389
root 5.39288 18.1345 -2.17694 -2.33871 18.1605 -6.46485
lowerback 21.2472 -1.60322 -5.0096
upperback 5.50152 -3.1453 -0.903565
thorax -5.63194 -1.46594 2.67092
lowerneck -8.00184 -9.59623 -12.0134
upperneck -0.894136 -12.4094 18.6616
head 3.07095 -5.81529 6.88254
rclavicle 2.54444e-014 -9.54166e-015
rhumerus -26.8777 13.0754 -76.1884
rradius 46.3727
rwrist 8.01917
rhand -33.7127 6.24381
rfingers 7.12502
rthumb -6.90226 -23.6237
lclavicle 2.54444e-014 -9.54166e-015
lhumerus -24.9489 -7.36541 81.139
lradius 53.7434
lwrist -23.4072
lhand -20.3676 16.3838
lfingers 7.12502
lthumb 5.98489 46.2793
rfemur -24.6093 13.3142 2.50226
rtibia 41.7031
rfoot 12.0304 -22.3742
rtoes 9.85254
lfemur -20.1254 4.82208 -11.0718
ltibia 44.0028
lfoot -19.3998 0.470541
ltoes 1.43485
1390
root 5.44875 18.1811 -2.16742 -2.31262 17.8698 -6.24659
lowerback 21.0021 -1.64031 -5.13855
upperback 5.46677 -3.21471 -0.97416
thorax -5.53357 -1.50232 2.6751
lowerneck -7.95848 -9.62029 -11.9848
upperneck -0.65638 -12.4818 18.6722
head 3.14321 -5.8463 6.87166
rclavicle -3.97569e-014 -2.22639e-014
rhumerus -27.2647 13.0437 -76.362
rradius 46.072
rwrist 7.89993
rhand -32.6916 5.43661
rfingers 7.12502
rthumb -5.91647 -24.4608
lclavicle -3.97569e-014 -2.22639e-014
lhumerus -25.1871 -7.32547 81.0179
lradius 53.6643
lwrist -23.3369
lhand -20.2939 16.2624
lfingers 7.12502
lthumb 6.05605 46.1559
rfemur -24.8073 13.6141 2.54882
rtibia 41.5754
rfoot 11.856 -20.1187
rtoes 8.01658
lfemur -19.3425 4.75925 -11.4658
ltibia 42.9918
lfoot -19.2209 0.828924
ltoes 1.70514
